<?xml version="1.0" encoding="utf-8"?>
<!-- Generator: Adobe Illustrator 25.3.0, SVG Export Plug-In . SVG Version: 6.00 Build 0)  -->
<svg version="1.1" id="Camada_1" xmlns="http://www.w3.org/2000/svg" xmlns:xlink="http://www.w3.org/1999/xlink" x="0px" y="0px"
	 viewBox="0 0 595.3 530.9" style="enable-background:new 0 0 595.3 530.9;" xml:space="preserve">
<style type="text/css">
	.st0{fill:#FFFFFF;}
</style>
<g>
	<path class="st0" d="M589.3,201.8c-1.9-1.7-3.9-2.9-5.9-4.2c-4.1-2.3-8.5-3.9-13-4.7c-2.2-0.4-4.5-0.7-6.7-0.7c-1.1,0-2.2,0-3.4,0
		c-0.6,0-1.1,0-1.7,0.1l-1.7,0.2c-2.2,0.3-4.4,0.6-6.6,1.1l-1.5,0.4c-0.6-3.1-1.2-6.3-1.9-9.3c0.4-0.1,0.7-0.3,1.1-0.4
		c1-0.4,2-1,3-1.5c2-1.1,3.9-2.2,5.8-3.6c1.9-1.3,3.6-3,5.3-4.8c1.7-1.8,3.3-3.7,4.7-6c-4.5-3.3-8.4-5.2-12.1-7.2
		c-1.8-1-3.6-1.9-5.3-2.6c-0.9-0.4-1.7-0.7-2.5-1.1c-0.8-0.4-1.6-0.8-2.4-1.1c-1.6-0.7-3.2-1.3-4.7-1.8c-0.9-0.4-1.9-0.7-2.8-1.1
		c-1.8-4.5-3.5-8.3-5-11.4c5.6-6.1,10.3-13,14-20.5c4.9-9.9,7.9-20.7,8.7-31.7c0.3-5.5,0.1-11.1-0.9-16.5c-0.9-5.4-2.5-10.8-5.2-16
		c-1.7,2.5-2.9,4.9-4.2,7.2c-1.3,2.4-2.4,4.7-3.7,6.9c-0.4,0.9-0.9,1.8-1.4,2.7c1.1-8.9,1.2-18,0.2-27c-0.5-3.8-1-7.5-2-11.2
		c-0.4-1.8-0.9-3.7-1.4-5.5c-0.5-1.8-1.2-3.6-1.8-5.4c-2.6-7.1-6.1-14-11-20.3c-1.6,3.7-2.7,7.3-3.9,10.8c-1.2,3.5-2.2,6.9-3.3,10.2
		c-1.9,6.7-4,13.1-5.7,19.4c-0.5,1.8-1.1,3.6-1.6,5.4C482,10,428.1-1.7,401.5,8.1c85.7,7,65.6,104.4,2.5,111.4
		c-60.4,6.7-102.5,40.5-106,43.4c-3.5-2.9-45.6-36.7-106-43.4c-63.1-7-83.2-104.4,2.5-111.4C167.9-1.7,114,10,87.1,50.8
		c-0.5-1.8-1-3.6-1.6-5.4c-1.7-6.3-3.7-12.7-5.7-19.4c-1.1-3.4-2.1-6.8-3.3-10.2c-1.2-3.5-2.3-7.1-3.9-10.8
		c-4.9,6.3-8.4,13.2-11,20.3c-0.6,1.8-1.3,3.6-1.8,5.4c-0.5,1.8-1,3.7-1.4,5.5c-0.9,3.7-1.4,7.4-2,11.2c-1,9-0.9,18,0.2,27
		c-0.5-0.9-0.9-1.8-1.4-2.7c-1.2-2.2-2.3-4.6-3.7-6.9c-1.3-2.3-2.5-4.8-4.2-7.2c-2.7,5.2-4.3,10.5-5.2,16c-1,5.5-1.2,11-0.9,16.5
		c0.7,11,3.8,21.9,8.7,31.7c3.7,7.4,8.4,14.4,14,20.5c-1.5,3.1-3.2,7-5,11.4c-0.9,0.3-1.9,0.7-2.8,1.1c-1.5,0.5-3.1,1.1-4.7,1.8
		c-0.8,0.3-1.6,0.7-2.4,1.1c-0.8,0.4-1.7,0.7-2.5,1.1c-1.7,0.8-3.5,1.6-5.3,2.6c-3.7,2-7.6,3.9-12.1,7.2c1.4,2.3,3,4.2,4.7,6
		c1.7,1.8,3.4,3.5,5.3,4.8c1.9,1.3,3.8,2.5,5.8,3.6c1,0.5,2,1.1,3,1.5c0.4,0.1,0.7,0.3,1.1,0.4c-0.7,3-1.4,6.2-1.9,9.3l-1.5-0.4
		c-2.2-0.5-4.4-0.9-6.6-1.1l-1.7-0.2c-0.6,0-1.1,0-1.7-0.1c-1.1,0-2.2,0-3.4,0c-2.2,0-4.5,0.3-6.7,0.7c-4.5,0.8-8.9,2.4-13,4.7
		c-2.1,1.2-4.1,2.5-5.9,4.2c-1.9,1.6-3.7,3.5-5.1,5.9c2.2,1.7,4.1,3.1,5.9,4.4l2.7,1.9l2.6,1.8c3.3,2.3,6.3,4.3,9.3,6.1
		c5.8,3.5,11.2,6.1,16.8,8.2c0.7,0.2,1.4,0.5,2.1,0.8c0.7,0.3,1.4,0.5,2.1,0.8c0.7,0.2,1.4,0.5,2.2,0.6c0.2,0.1,0.4,0.1,0.5,0.2
		c0,0,0,0,0,0c1.1,8.2,3.3,16.2,6.8,23.7c-2.6,0.7-5.2,1.8-7.6,3.1c-1,0.6-1.9,1.1-2.8,1.8c-0.9,0.7-1.8,1.4-2.7,2.1
		c-1.7,1.4-3.3,3.4-4.8,5.5c3.7,3.7,6.7,6.2,9.5,8.8c1.4,1.2,2.7,2.4,3.9,3.4c1.2,1.1,2.4,2,3.6,3c2.3,1.9,4.5,3.4,6.8,4.9
		c2.2,1.4,4.5,2.6,6.9,3.7c4.8,2.2,9.9,3.9,16.2,5c0.6,0.1,1.2,0.2,1.9,0.3c28.3,36.2,47.6,69.1,29.4,131c-0.5,1.6-0.8,3.2-1.1,4.8
		c18.3-11.5,40-18.1,63.2-18.1c62.4,0,117.3,53.7,122.9,115.3l0.2,2l0.2-2c5.6-61.6,60.5-115.3,122.9-115.3
		c23.2,0,44.9,6.6,63.2,18.1c-0.3-1.6-0.7-3.2-1.1-4.8c-18.2-62,1.1-94.9,29.4-131c0.6-0.1,1.2-0.2,1.9-0.3c6.2-1.1,11.4-2.9,16.2-5
		c2.4-1.1,4.6-2.3,6.9-3.7c2.2-1.4,4.4-3,6.8-4.9c1.2-0.9,2.3-1.9,3.6-3c1.2-1,2.5-2.2,3.9-3.4c2.8-2.5,5.8-5,9.5-8.8
		c-1.4-2.1-3-4-4.8-5.5c-0.9-0.8-1.8-1.4-2.7-2.1c-0.9-0.6-1.9-1.2-2.8-1.8c-2.4-1.4-5-2.4-7.6-3.1c3.6-7.5,5.8-15.5,6.8-23.7
		c0,0,0,0,0,0c0.2-0.1,0.4-0.1,0.5-0.2c0.8-0.2,1.5-0.4,2.2-0.6c0.7-0.2,1.4-0.5,2.1-0.8c0.7-0.3,1.4-0.6,2.1-0.8
		c5.6-2.2,11-4.7,16.8-8.2c2.9-1.8,6-3.7,9.3-6.1l2.5-1.8l2.7-1.9c1.9-1.4,3.7-2.7,6-4.4C593,205.2,591.2,203.4,589.3,201.8z
		 M378.3,233.4c3.1,10.3,12.7,17.8,24,17.8c13.9,0,25.1-11.2,25.1-25.1c0-5.4-1.7-10.3-4.6-14.4c12.3-6.2,23.7-12.3,34-18.4
		c0.3,0.9,0.5,1.8,0.7,2.6c4,15.8,1.5,32.7-6.4,46.2c-3.9,6.8-9.1,12.8-15.1,17.6c-6,4.8-13,8.5-20.4,10.8
		c-7.4,2.3-15.2,3.2-22.9,2.6c-7.7-0.6-15.4-2.6-22.4-6c-9-4.3-16.9-10.9-23-19.1C358.1,242.9,368.4,238.1,378.3,233.4z
		 M138.4,195.9c0.2-0.9,0.5-1.8,0.7-2.6c10.4,6.1,21.8,12.1,34.1,18.4c-2.9,4.1-4.6,9.1-4.6,14.4c0,13.9,11.2,25.1,25.1,25.1
		c11.3,0,20.9-7.5,24-17.8c9.9,4.7,20.2,9.6,30.8,14.6c-6,8.2-14,14.8-22.9,19.1c-7.1,3.4-14.7,5.5-22.4,6
		c-7.7,0.6-15.5-0.3-22.9-2.6c-7.4-2.3-14.3-6-20.4-10.8c-6.1-4.8-11.2-10.8-15.1-17.6C136.9,228.5,134.3,211.7,138.4,195.9z
		 M505.4,265c-3,7.2-7.3,14-13.1,20c-4.7,4.8-10.4,9.2-17.3,12.9c-65.4,35.1-57.6,65.4-68.5,82.6c-10.9,17.1-22.9,20.3-22.9,20.3
		s-4-7.9,3.6-40c-42.7,2.2-85.6,74.9-89.1,81.1c-3.5-6.1-46.4-78.8-89.1-81.1c7.6,32.1,3.6,40,3.6,40s-12-3.1-22.9-20.3
		c-10.9-17.1-3.1-47.5-68.5-82.6c-6.9-3.7-12.6-8-17.3-12.9c-5.9-6-10.2-12.8-13.2-20c-13.3-32-1.1-72,9.3-89.3
		c0.4-0.3,0.8-0.7,1.1-1c1.4-1.3,2.8-2.8,4-4.4c8.3,6.8,18.1,13.4,29,20c-0.5,1.2-1.1,2.5-1.5,3.8c-3,8.4-4.4,17.5-3.9,26.5
		c0.5,9.1,2.8,18.1,6.9,26.4c3.3,6.7,7.7,12.9,13.1,18.2c0,0.3,0,0.5-0.1,0.7c-0.1,0.8-0.1,1.4-0.1,2.1c0,1.3,0,2.6,0.2,3.8
		c0.1,1.2,0.2,2.4,0.5,3.6c0.2,1.2,0.4,2.3,0.7,3.4c1.1,4.4,2.7,8.5,4.6,12.2c1,1.9,2,3.6,3.1,5.3c1,1.7,2.3,3.3,3.4,4.9
		c1.2,1.5,2.5,3,3.8,4.4c1.3,1.4,2.7,2.7,4,4c-0.3-1.9-0.6-3.7-0.8-5.5c-0.1-1.9-0.3-3.6-0.3-5.4c0-1.8-0.1-3.5,0.1-5.3
		c0.1-1.7,0.3-3.4,0.6-5c0.6-3,1.4-5.9,2.5-8.4c2,0.8,4,1.5,6,2.2l6.8,1.7c2.3,0.4,4.6,0.7,6.9,1c2.3,0.2,4.6,0.2,7,0.3
		c2.3,0,4.6-0.3,7-0.4c9.2-1,18.2-3.9,26.2-8.4c8-4.5,15-10.7,20.5-17.9c1.7-2.2,3.3-4.6,4.6-7c9.4,4.5,19,9.1,28.8,14
		c2.9,9.7,3.6,19.9,1.8,29.8c-2.7,15.2-11.1,29.3-23.6,39c-6.2,4.9-13.4,8.7-21.2,11.1c-7.8,2.5-16.1,3.5-24.7,3.4
		c8.2,2.8,17.1,3.5,26,2.4c8.9-1.1,17.6-4.3,25.3-9.1c4.9-3.1,9.4-6.8,13.4-11.1c-6.5,13-15.2,24.9-26.5,30.9
		c32.3,19.7,41,42.2,42.9,48.8c0.1,0.3,0.2,0.6,0.2,0.8c0.1-0.2,0.1-0.5,0.2-0.8c1.9-6.5,10.6-29,42.9-48.8
		c-11.3-6-20-17.9-26.5-30.9c4,4.3,8.5,8,13.4,11.1c7.8,4.8,16.5,8,25.4,9.1c8.9,1.1,17.9,0.4,26-2.4c-8.6,0.2-17-0.8-24.7-3.4
		c-7.8-2.5-15-6.3-21.2-11.1c-12.5-9.7-20.9-23.8-23.6-39c-1.8-9.9-1.2-20.1,1.8-29.8c9.8-4.8,19.5-9.5,28.8-14c1.4,2.4,3,4.7,4.6,7
		c5.5,7.2,12.5,13.4,20.5,17.9s17,7.5,26.2,8.4c2.3,0.1,4.6,0.4,7,0.4c2.3-0.1,4.6-0.1,7-0.3c2.3-0.3,4.6-0.6,6.9-1l6.8-1.7
		c2-0.6,4-1.4,6-2.2c1.1,2.5,1.9,5.4,2.5,8.4c0.3,1.6,0.5,3.3,0.6,5c0.2,1.7,0.1,3.5,0.1,5.3c0,1.8-0.2,3.6-0.3,5.4
		c-0.2,1.8-0.5,3.6-0.8,5.5c1.3-1.3,2.7-2.6,4-4c1.2-1.4,2.6-2.9,3.8-4.4c1.2-1.6,2.4-3.1,3.5-4.9c1.1-1.7,2.1-3.5,3.1-5.3
		c1.9-3.7,3.5-7.8,4.6-12.2c0.3-1.1,0.5-2.2,0.7-3.4c0.2-1.2,0.4-2.3,0.5-3.6c0.1-1.2,0.2-2.5,0.2-3.8c0-0.7,0-1.3-0.1-2.1
		c0-0.3,0-0.5-0.1-0.7c5.4-5.3,9.8-11.5,13.1-18.2c4.1-8.3,6.3-17.3,6.9-26.4c0.5-9.1-0.9-18.1-3.9-26.5c-0.5-1.3-1-2.6-1.5-3.8
		c11-6.6,20.7-13.2,29-20c1.2,1.6,2.6,3,4,4.4c0.4,0.4,0.7,0.7,1.1,1C506.4,192.9,518.7,232.9,505.4,265z"/>
	<path class="st0" d="M392.7,102.8c-89.1,12.8-94.4,34.9-94.7,38.6c-0.3-3.7-5.8-25.8-94.9-38.6c-97.5-14-35.9-93,94.8-90.5
		C428.6,9.7,490.1,88.8,392.7,102.8z"/>
</g>
</svg>
