<?xml version="1.0" encoding="utf-8"?>
<!-- Generator: Adobe Illustrator 25.3.0, SVG Export Plug-In . SVG Version: 6.00 Build 0)  -->
<svg version="1.1" id="Camada_1" xmlns="http://www.w3.org/2000/svg" xmlns:xlink="http://www.w3.org/1999/xlink" x="0px" y="0px"
	 viewBox="0 0 595.28 530.89" style="enable-background:new 0 0 595.28 530.89;" xml:space="preserve">
<g>
	<path d="M589.3,201.76c-1.89-1.68-3.88-2.95-5.94-4.19c-4.12-2.28-8.54-3.88-13-4.66c-2.24-0.4-4.5-0.71-6.73-0.74
		c-1.12-0.01-2.25-0.04-3.37,0c-0.57,0.01-1.13,0.01-1.7,0.05l-1.66,0.19c-2.21,0.27-4.43,0.61-6.61,1.12l-1.51,0.44
		c-0.57-3.15-1.21-6.26-1.94-9.31c0.36-0.15,0.73-0.28,1.09-0.42c1.04-0.43,2.03-0.97,3.04-1.51c1.99-1.08,3.93-2.25,5.81-3.58
		c1.89-1.31,3.62-3.02,5.31-4.77c1.67-1.78,3.26-3.68,4.66-6.01c-4.5-3.34-8.38-5.23-12.07-7.19c-1.83-1.01-3.6-1.87-5.31-2.63
		c-0.86-0.4-1.7-0.7-2.53-1.09c-0.82-0.38-1.64-0.78-2.44-1.1c-1.62-0.71-3.19-1.27-4.74-1.76c-0.94-0.38-1.87-0.74-2.8-1.05
		c-1.79-4.46-3.5-8.32-4.96-11.45c5.63-6.09,10.34-13.01,14.03-20.46c4.9-9.86,7.93-20.71,8.67-31.72
		c0.28-5.52,0.11-11.06-0.88-16.53c-0.94-5.45-2.53-10.84-5.24-15.99c-1.67,2.48-2.9,4.89-4.2,7.23c-1.35,2.36-2.42,4.67-3.68,6.92
		c-0.44,0.92-0.9,1.82-1.36,2.71c1.13-8.94,1.24-18.02,0.24-26.98c-0.54-3.76-1.02-7.5-1.97-11.19c-0.43-1.85-0.92-3.68-1.43-5.5
		c-0.53-1.83-1.17-3.64-1.8-5.41c-2.61-7.15-6.07-14.03-10.98-20.32c-1.64,3.74-2.73,7.3-3.92,10.8c-1.21,3.5-2.18,6.9-3.27,10.25
		c-1.94,6.68-4,13.12-5.68,19.42c-0.55,1.82-1.08,3.62-1.59,5.41C482.02,10.02,428.11-1.66,401.52,8.15
		c85.67,7,65.58,104.37,2.48,111.39c-60.38,6.71-102.5,40.51-106,43.41c-3.5-2.9-45.62-36.7-106-43.41
		c-63.1-7.02-83.2-104.38,2.48-111.39c-26.59-9.81-80.5,1.87-107.35,42.62c-0.51-1.79-1.04-3.6-1.59-5.41
		c-1.68-6.3-3.74-12.74-5.68-19.42c-1.09-3.35-2.06-6.75-3.27-10.25c-1.19-3.5-2.28-7.06-3.92-10.8
		c-4.9,6.29-8.36,13.17-10.98,20.32c-0.63,1.78-1.28,3.58-1.8,5.41c-0.51,1.82-1,3.65-1.43,5.5c-0.94,3.69-1.43,7.43-1.97,11.19
		c-1,8.96-0.89,18.03,0.24,26.98c-0.46-0.89-0.92-1.79-1.36-2.71c-1.25-2.25-2.33-4.57-3.68-6.92c-1.31-2.34-2.53-4.75-4.2-7.23
		c-2.71,5.15-4.3,10.53-5.24,15.99c-0.98,5.47-1.16,11-0.88,16.53c0.74,11,3.77,21.86,8.67,31.72c3.69,7.45,8.4,14.37,14.03,20.46
		c-1.45,3.12-3.17,6.99-4.96,11.45c-0.93,0.31-1.86,0.67-2.8,1.05c-1.55,0.5-3.12,1.05-4.74,1.76c-0.79,0.32-1.62,0.73-2.44,1.1
		c-0.84,0.39-1.67,0.69-2.53,1.09c-1.71,0.75-3.47,1.62-5.31,2.63c-3.69,1.97-7.57,3.85-12.07,7.19c1.4,2.33,2.99,4.23,4.66,6.01
		c1.68,1.75,3.42,3.46,5.31,4.77c1.87,1.33,3.81,2.51,5.81,3.58c1.01,0.54,2.01,1.08,3.04,1.51c0.36,0.13,0.73,0.27,1.09,0.42
		c-0.73,3.04-1.37,6.16-1.94,9.31l-1.51-0.44c-2.18-0.51-4.4-0.85-6.61-1.12l-1.66-0.19c-0.57-0.04-1.13-0.04-1.7-0.05
		c-1.12-0.04-2.25-0.01-3.37,0c-2.24,0.03-4.5,0.34-6.73,0.74c-4.46,0.78-8.88,2.38-13,4.66c-2.06,1.24-4.05,2.51-5.94,4.19
		c-1.86,1.6-3.68,3.49-5.1,5.86c2.22,1.7,4.09,3.07,5.95,4.42l2.67,1.94l2.55,1.76c3.31,2.34,6.34,4.28,9.27,6.07
		c5.82,3.54,11.18,6.06,16.77,8.24c0.73,0.2,1.4,0.53,2.1,0.79c0.71,0.26,1.41,0.54,2.14,0.75c0.73,0.22,1.44,0.47,2.21,0.63
		c0.18,0.05,0.36,0.11,0.54,0.18c0,0,0,0,0.01,0c1.08,8.16,3.26,16.18,6.84,23.71c-2.6,0.73-5.15,1.76-7.58,3.12
		c-0.96,0.58-1.9,1.12-2.81,1.75c-0.92,0.7-1.82,1.35-2.68,2.14c-1.74,1.44-3.34,3.39-4.75,5.48c3.7,3.73,6.71,6.24,9.46,8.78
		c1.36,1.19,2.65,2.37,3.88,3.39c1.24,1.1,2.42,2.03,3.58,2.98c2.3,1.85,4.51,3.43,6.75,4.86c2.24,1.4,4.5,2.64,6.87,3.74
		c4.77,2.17,9.95,3.91,16.2,5.02c0.61,0.11,1.23,0.22,1.86,0.32c28.26,36.19,47.57,69.07,29.38,131.04
		c-0.47,1.6-0.85,3.19-1.13,4.77c18.33-11.49,40-18.13,63.24-18.13c62.4,0,117.26,53.66,122.88,115.31l0.24,1.95l0.24-1.95
		c5.62-61.65,60.47-115.31,122.88-115.31c23.23,0,44.9,6.64,63.24,18.13c-0.28-1.58-0.66-3.17-1.13-4.77
		c-18.2-61.97,1.12-94.85,29.38-131.04c0.63-0.11,1.25-0.22,1.86-0.32c6.25-1.12,11.43-2.86,16.2-5.02c2.37-1.1,4.63-2.34,6.87-3.74
		c2.24-1.43,4.44-3.02,6.75-4.86c1.16-0.94,2.34-1.87,3.58-2.98c1.23-1.02,2.52-2.21,3.88-3.39c2.75-2.55,5.75-5.05,9.46-8.78
		c-1.41-2.09-3.02-4.04-4.75-5.48c-0.86-0.79-1.76-1.44-2.68-2.14c-0.92-0.63-1.86-1.17-2.81-1.75c-2.44-1.36-4.98-2.4-7.58-3.12
		c3.58-7.53,5.76-15.54,6.84-23.71c0.01,0,0.01,0,0.01,0c0.18-0.07,0.36-0.12,0.54-0.18c0.77-0.16,1.48-0.42,2.21-0.63
		c0.73-0.22,1.43-0.5,2.14-0.75c0.7-0.27,1.37-0.59,2.1-0.79c5.59-2.18,10.95-4.7,16.77-8.24c2.92-1.79,5.95-3.73,9.27-6.07
		l2.55-1.76l2.67-1.94c1.86-1.35,3.73-2.72,5.95-4.42C592.98,205.25,591.16,203.36,589.3,201.76z M378.27,233.36
		c3.12,10.3,12.7,17.81,24.03,17.81c13.87,0,25.12-11.25,25.12-25.12c0-5.37-1.68-10.34-4.57-14.43
		c12.28-6.22,23.68-12.3,34.05-18.36c0.27,0.88,0.51,1.75,0.74,2.63c4.01,15.8,1.51,32.66-6.37,46.21
		c-3.92,6.8-9.06,12.81-15.11,17.64c-6.05,4.82-12.97,8.51-20.36,10.79c-7.39,2.29-15.19,3.17-22.91,2.57
		c-7.73-0.58-15.37-2.63-22.44-6.05c-8.98-4.28-16.93-10.9-22.95-19.06C358.1,242.95,368.37,238.09,378.27,233.36z M138.35,195.89
		c0.23-0.88,0.47-1.75,0.74-2.63c10.37,6.06,21.77,12.14,34.05,18.36c-2.88,4.08-4.57,9.05-4.57,14.43
		c0,13.87,11.25,25.12,25.12,25.12c11.33,0,20.9-7.5,24.03-17.81c9.9,4.73,20.18,9.59,30.78,14.64
		c-6.02,8.16-13.97,14.78-22.95,19.06c-7.07,3.42-14.71,5.47-22.44,6.05c-7.72,0.59-15.52-0.28-22.91-2.57
		c-7.39-2.28-14.32-5.97-20.36-10.79c-6.05-4.84-11.19-10.84-15.11-17.64C136.85,228.55,134.34,211.69,138.35,195.89z M505.39,265
		c-2.99,7.19-7.27,13.98-13.15,20.03c-4.7,4.82-10.42,9.17-17.32,12.88c-65.43,35.06-57.65,65.43-68.54,82.56
		c-10.91,17.15-22.9,20.26-22.9,20.26s-3.99-7.89,3.61-40.02c-42.71,2.24-85.55,74.93-89.1,81.07c-3.54-6.14-46.39-78.83-89.1-81.07
		c7.6,32.12,3.61,40.02,3.61,40.02s-11.99-3.11-22.9-20.26c-10.9-17.13-3.11-47.5-68.54-82.56c-6.9-3.7-12.62-8.05-17.32-12.88
		c-5.87-6.05-10.16-12.84-13.15-20.03c-13.31-32.04-1.05-72.04,9.27-89.34c0.39-0.34,0.75-0.69,1.13-1.04
		c1.44-1.33,2.77-2.8,4.01-4.36c8.34,6.79,18.06,13.4,29.03,20.01c-0.54,1.25-1.05,2.53-1.51,3.83c-2.99,8.39-4.42,17.47-3.93,26.53
		c0.53,9.06,2.79,18.12,6.86,26.37c3.3,6.73,7.74,12.93,13.09,18.24c-0.03,0.26-0.04,0.47-0.07,0.73c-0.08,0.75-0.08,1.4-0.11,2.09
		c0,1.32,0.03,2.59,0.16,3.81c0.09,1.23,0.24,2.41,0.46,3.57c0.16,1.16,0.44,2.28,0.7,3.39c1.08,4.42,2.69,8.46,4.57,12.18
		c1,1.85,1.97,3.64,3.11,5.31c1.04,1.71,2.28,3.29,3.45,4.85c1.19,1.55,2.53,2.98,3.76,4.42c1.33,1.39,2.69,2.71,4,4.01
		c-0.27-1.87-0.57-3.69-0.79-5.51c-0.12-1.85-0.34-3.62-0.34-5.41c-0.01-1.79-0.05-3.53,0.12-5.27c0.07-1.72,0.34-3.41,0.59-5.05
		c0.55-3.02,1.36-5.89,2.48-8.42c1.97,0.81,3.97,1.54,5.99,2.17l6.76,1.7c2.29,0.39,4.61,0.69,6.9,1.02
		c2.32,0.2,4.65,0.22,6.96,0.31c2.33-0.04,4.65-0.26,6.96-0.4c9.23-1,18.21-3.91,26.21-8.44c8-4.54,14.98-10.73,20.5-17.93
		c1.7-2.22,3.26-4.55,4.65-6.96c9.37,4.49,18.99,9.12,28.82,13.95c2.92,9.66,3.56,19.89,1.76,29.75
		c-2.73,15.23-11.15,29.31-23.65,39.05c-6.22,4.89-13.4,8.67-21.17,11.15c-7.77,2.55-16.12,3.53-24.74,3.37
		c8.16,2.83,17.15,3.54,26.01,2.44c8.88-1.14,17.59-4.3,25.35-9.13c4.92-3.06,9.43-6.82,13.4-11.1
		c-6.52,13.01-15.19,24.93-26.47,30.9c32.3,19.72,40.96,42.21,42.87,48.76c0.09,0.31,0.18,0.59,0.24,0.84
		c0.07-0.24,0.15-0.53,0.24-0.84c1.91-6.55,10.57-29.04,42.87-48.76c-11.27-5.97-19.95-17.89-26.47-30.9
		c3.97,4.28,8.49,8.04,13.4,11.1c7.76,4.84,16.47,7.99,25.35,9.13c8.86,1.1,17.85,0.39,26.01-2.44c-8.62,0.16-16.97-0.82-24.74-3.37
		c-7.77-2.48-14.95-6.26-21.17-11.15c-12.5-9.74-20.92-23.81-23.65-39.05c-1.79-9.86-1.16-20.1,1.76-29.75
		c9.83-4.84,19.45-9.47,28.82-13.95c1.39,2.41,2.95,4.74,4.65,6.96c5.52,7.19,12.5,13.39,20.5,17.93s16.98,7.45,26.21,8.44
		c2.32,0.15,4.63,0.36,6.96,0.4c2.32-0.09,4.65-0.11,6.96-0.31c2.29-0.34,4.61-0.63,6.9-1.02l6.76-1.7
		c2.02-0.63,4.03-1.36,5.99-2.17c1.12,2.53,1.93,5.4,2.48,8.42c0.26,1.64,0.53,3.33,0.59,5.05c0.18,1.74,0.13,3.47,0.12,5.27
		c0,1.79-0.22,3.57-0.34,5.41c-0.23,1.82-0.53,3.64-0.79,5.51c1.31-1.31,2.67-2.63,4-4.01c1.23-1.44,2.57-2.87,3.76-4.42
		c1.17-1.56,2.41-3.14,3.45-4.85c1.14-1.67,2.11-3.46,3.11-5.31c1.87-3.72,3.49-7.76,4.57-12.18c0.26-1.12,0.54-2.24,0.7-3.39
		c0.22-1.16,0.36-2.34,0.46-3.57c0.13-1.23,0.16-2.49,0.16-3.81c-0.03-0.69-0.03-1.33-0.11-2.09c-0.03-0.26-0.04-0.47-0.07-0.73
		c5.35-5.31,9.79-11.5,13.09-18.24c4.07-8.26,6.33-17.31,6.86-26.37c0.48-9.06-0.94-18.14-3.93-26.53
		c-0.46-1.29-0.97-2.57-1.51-3.83c10.96-6.61,20.69-13.23,29.03-20.01c1.24,1.56,2.57,3.03,4.01,4.36c0.38,0.35,0.74,0.7,1.13,1.04
		C506.44,192.95,518.7,232.95,505.39,265z"/>
	<path d="M392.69,102.78c-89.15,12.81-94.43,34.9-94.69,38.6c-0.3-3.7-5.79-25.79-94.95-38.6c-97.46-14.01-35.95-93.03,94.83-90.54
		C428.65,9.75,490.15,88.77,392.69,102.78z"/>
</g>
</svg>
