<?xml version="1.0" encoding="utf-8"?>
<!-- Generator: Adobe Illustrator 25.3.0, SVG Export Plug-In . SVG Version: 6.00 Build 0)  -->
<svg version="1.1" id="Camada_1" xmlns="http://www.w3.org/2000/svg" xmlns:xlink="http://www.w3.org/1999/xlink" x="0px" y="0px"
	 viewBox="0 0 1080 1080" style="enable-background:new 0 0 1080 1080;" xml:space="preserve">
<path d="M956.63,663.37c-118.21,0-224.86,49.21-300.68,128.25c-7.87,8.2-15.36,16.7-22.51,25.48c-2.43,2.97-4.81,5.98-7.11,9.04
	C572.18,896.44,540,984.43,540,1080c0-83.48-24.56-161.26-66.82-226.41c-1-1.55-2.01-3.1-3.05-4.64
	c-8.7-13.01-18.08-25.48-28.16-37.41c-30.71-36.4-67.62-67.53-109-91.64c-21.51-12.59-44.19-23.26-67.91-31.8
	c-10.88-3.98-22.01-7.45-33.31-10.5c-34.56-9.29-70.88-14.23-108.37-14.23c32.8,0,64.73-8.24,95.36-22.97
	C404.14,574.71,540,361.27,540,108.12C540,75.86,539.54,4.56,540,0c17.78,139.59,31.13,224.24,31.13,286.37
	c0,123.06-53.39,233.65-138.25,309.89c-5.9,5.36-12.01,10.54-18.24,15.52c-7.99,5.27-16.15,10.25-24.52,14.94
	c19,6.23,27.59,12.96,45.21,21.84c24.9,12.47,46.1,28.29,67.81,45.32c10.71,8.37,21.05,17.28,30.88,26.65
	c2.01,1.92,4.02,3.89,5.98,5.86c8.16-9.08,16.78-17.78,25.73-26.07c6.15-5.77,12.47-11.3,19-16.65c7.07-5.82,14.35-11.38,21.8-16.74
	c21.63-15.52,56.82-29.04,81.3-40.21h-104.9c-1.88,1.26-3.48,2.59-5.36,3.93c-7.45,5.36-14.73,10.92-21.8,16.74
	c-5.4,4.44-10.63,8.95-15.77,13.68c-15.82-12.64-26.68-23.18-42.68-34.35c-2.94-2.05-6.19-3.56-9.33-5.27
	c75.02-75.32,121.43-179.21,121.43-293.94v-0.84c36.91,87.24,86.82,170.55,145.36,232.48c8.37,8.83,16.86,17.24,25.57,25.15
	c3.93,3.6,7.91,7.11,11.93,10.46c14.27,12.09,28.91,22.8,43.98,31.97C874.36,649.98,914.78,663.37,956.63,663.37z"/>
</svg>
